HIERARCHY
ROOT root
{
	OFFSET	0	13.1	24.9
	CHANNELS 6  Xposition Yposition Zposition Xrotation Yrotation Zrotation
	JOINT spine_1
	{
		OFFSET	0	9.99999	0
		CHANNELS 3  Xrotation Yrotation Zrotation
		JOINT spine_2
		{
			OFFSET	0	112	-10
			CHANNELS 3  Xrotation Yrotation Zrotation
			JOINT spine_3
			{
				OFFSET	0	206.5	19.3
				CHANNELS 3  Xrotation Yrotation Zrotation
				JOINT spine_4
				{
					OFFSET	0	110.4	14.6
					CHANNELS 3  Xrotation Yrotation Zrotation
					JOINT neck_1
					{
						OFFSET	0	71.8	-50.3
						CHANNELS 3  Xrotation Yrotation Zrotation
						JOINT neck_2
						{
							OFFSET	0	86.2	-25.8
							CHANNELS 3  Xrotation Yrotation Zrotation
							JOINT head_ee
							{
								OFFSET	0	179.8	-8.7
								CHANNELS 3  Xrotation Yrotation Zrotation
								End Site
								{
									OFFSET	1	0	0
								}
							}
						}
					}
					JOINT left_clavicle
					{
						OFFSET	-43.2	22.4	-70.8
						CHANNELS 3  Xrotation Yrotation Zrotation
						JOINT left_shoulder
						{
							OFFSET	-93.9	-5.79999	48.7
							CHANNELS 3  Xrotation Yrotation Zrotation
							JOINT left_elbow
							{
								OFFSET	-291.4	-30.8	15.2
								CHANNELS 3  Xrotation Yrotation Zrotation
								JOINT left_lowarm_twist
								{
									OFFSET	-110.7	-3.89999	13.6
									CHANNELS 3  Xrotation Yrotation Zrotation
									JOINT left_hand
									{
										OFFSET	-110.7	-3.89999	13.6
										CHANNELS 3  Xrotation Yrotation Zrotation
										JOINT left_ee
										{
											OFFSET	-80.8	-5.10001	12.1
											CHANNELS 3  Xrotation Yrotation Zrotation
											End Site
											{
												OFFSET	1	0	0
											}
										}
									}
								}
							}
						}
					}
					JOINT right_clavicle
					{
						OFFSET	43.2	22.4	-70.8
						CHANNELS 3  Xrotation Yrotation Zrotation
						JOINT right_shoulder
						{
							OFFSET	93.9	-5.79999	48.7
							CHANNELS 3  Xrotation Yrotation Zrotation
							JOINT right_elbow
							{
								OFFSET	291.4	-30.8	15.2
								CHANNELS 3  Xrotation Yrotation Zrotation
								JOINT right_lowarm_twist
								{
									OFFSET	110.7	-3.89999	13.6
									CHANNELS 3  Xrotation Yrotation Zrotation
									JOINT right_hand
									{
										OFFSET	110.7	-3.89999	13.6
										CHANNELS 3  Xrotation Yrotation Zrotation
										JOINT right_ee
										{
											OFFSET	80.8	-5.10001	12.1
											CHANNELS 3  Xrotation Yrotation Zrotation
											End Site
											{
												OFFSET	1	0	0
											}
										}
									}
								}
							}
						}
					}
				}
			}
		}
	}
	JOINT left_hip
	{
		OFFSET	-82.8	-127.5	0.300001
		CHANNELS 3  Xrotation Yrotation Zrotation
		JOINT left_knee
		{
			OFFSET	-28.2	-396.7	2.2
			CHANNELS 3  Xrotation Yrotation Zrotation
			JOINT left_ankle
			{
				OFFSET	-11.7	-411.3	35.4
				CHANNELS 3  Xrotation Yrotation Zrotation
				JOINT left_toes
				{
					OFFSET	0	-60	-88.6
					CHANNELS 3  Xrotation Yrotation Zrotation
					JOINT left_foot_ee
					{
						OFFSET	-22.5	-16.5	-42.2
						CHANNELS 3  Xrotation Yrotation Zrotation
						End Site
						{
							OFFSET	1	0	0
						}
					}
				}
			}
		}
	}
	JOINT right_hip
	{
		OFFSET	82.8	-127.5	0.300001
		CHANNELS 3  Xrotation Yrotation Zrotation
		JOINT right_knee
		{
			OFFSET	28.2	-396.7	2.2
			CHANNELS 3  Xrotation Yrotation Zrotation
			JOINT right_ankle
			{
				OFFSET	11.7	-411.3	35.4
				CHANNELS 3  Xrotation Yrotation Zrotation
				JOINT right_toes
				{
					OFFSET	0	-60	-88.6
					CHANNELS 3  Xrotation Yrotation Zrotation
					JOINT right_foot_ee
					{
						OFFSET	22.5	-16.5	-42.2
						CHANNELS 3  Xrotation Yrotation Zrotation
						End Site
						{
							OFFSET	1	0	0
						}
					}
				}
			}
		}
	}
}
MOTION
Frames: 5
Frame Time: 0.02
2949.227156 681.528 -1849.48180565 8.22945043289 22.9368803288 -2.75731861966 -3.65361 -0.120321 0.584938 -3.65343 -0.157298 0.576097 -3.65488 -0.308114 0.511564 -3.65518 -0.223457 0.553803 -5.50518 16.2242 10.4892 -5.1714 22.1796 13.4551 -0.0 0.0 -0.0 7.63783 19.0556 13.8309 -4.80088 -38.4541 45.6893 0.873273 -23.3928 0.180792 1.01602 0.0346887 -0.125125 -1.08274 4.10921 -5.42101 -0.0 0.0 -0.0 11.9097 19.8823 -23.7353 -21.4762 27.5772 -55.7199 0.300419 8.46474 -0.0222321 -39.1366 2.85981 -3.99796 -6.22475 -9.50331 39.3582 0.0 0.0 0.0 10.6301 -26.2846 6.12612 -30.4228 0.0276402 4.61425 15.0436 28.5021 -2.24684 37.4014 -0.0 -0.0 -0.0 0.0 -0.0 20.5148 50.0303 -20.3428 -44.0994 0.747951 -6.5624 41.272 -16.3531 5.06784 38.9233 -0.0 -0.0 0.0 0.0 0.0 
2935.46415761 681.751 -1849.00096129 5.40306899494 23.9004280162 -1.86687900058 -2.87774 0.100834 0.685115 -2.87748 0.0570348 0.690142 -2.87646 -0.123644 0.681368 -2.87711 -0.0144853 0.692343 -4.51363 18.2094 7.98842 -4.18831 27.4694 11.1149 -0.0 0.0 -0.0 7.43236 20.532 13.3692 -1.85982 -36.4375 44.9989 1.19684 -30.6617 0.328123 1.35977 0.0459217 -0.167594 -0.999411 1.00529 -6.2445 -0.0 0.0 -0.0 11.4342 17.4629 -22.7989 -22.6047 28.4198 -57.3618 0.375793 10.5455 -0.034681 -38.7371 2.81787 -3.96849 -6.21301 -10.8683 38.1511 0.0 0.0 0.0 13.0908 -24.9753 6.08125 -31.012 0.00397464 4.70157 12.5341 28.0947 -1.88307 36.4192 -0.0 -0.0 -0.0 0.0 -0.0 27.3645 54.5824 -23.868 -43.3286 0.691997 -6.45786 40.4895 -17.8643 5.0269 40.1306 -0.0 -0.0 0.0 0.0 0.0 
2928.32561638 681.751 -1838.98489726 5.50716294309 26.2306689666 -2.11253250701 -2.87774 0.100834 0.685115 -2.87748 0.0570348 0.690142 -2.87646 -0.123644 0.681368 -2.87711 -0.0144853 0.692343 -4.51363 18.2094 7.98842 -4.18831 27.4694 11.1149 -0.0 0.0 -0.0 7.43236 20.532 13.3692 -1.85982 -36.4375 44.9989 1.19684 -30.6617 0.328123 1.35977 0.0459217 -0.167594 -0.999411 1.00529 -6.2445 -0.0 0.0 -0.0 11.4342 17.4629 -22.7989 -22.6047 28.4198 -57.3618 0.375793 10.5455 -0.034681 -38.7371 2.81787 -3.96849 -6.21301 -10.8683 38.1511 0.0 0.0 0.0 13.0908 -24.9753 6.08125 -31.012 0.00397464 4.70157 12.5341 28.0947 -1.88307 36.4192 -0.0 -0.0 -0.0 0.0 -0.0 27.3645 54.5824 -23.868 -43.3286 0.691997 -6.45786 40.4895 -17.8643 5.0269 40.1306 -0.0 -0.0 0.0 0.0 0.0 
2902.43844206 681.82 -1824.43917382 5.02324964207 29.4762750664 -1.54183250931 -3.06526 -0.0982989 0.499554 -3.06513 -0.129887 0.492287 -3.06616 -0.254413 0.441012 -3.06638 -0.181571 0.475656 -4.4252 16.777 7.09646 -4.15478 25.464 9.97196 -0.0 0.0 -0.0 8.37935 19.8881 14.904 -1.42915 -37.3871 42.1479 1.24724 -31.7084 0.354221 1.09645 0.0373401 -0.135057 -1.35279 0.905788 -8.66329 -0.0 0.0 -0.0 11.0916 18.4733 -21.9633 -22.7767 28.045 -56.8488 0.439585 12.285 -0.0473081 -38.8462 2.8293 -3.97657 -6.20217 -11.291 37.7166 0.0 0.0 0.0 12.5259 -21.6471 5.29268 -30.6241 0.0196545 4.64411 14.1962 27.5891 -2.11397 37.6917 -0.0 -0.0 -0.0 0.0 -0.0 26.5446 53.5995 -22.3124 -41.9009 0.592109 -6.26231 39.8741 -17.0987 4.95643 40.0393 -0.0 -0.0 0.0 0.0 0.0 
2845.54694521 690.798 -1830.83230081 2.31094887392 28.1853782968 -0.794185757908 -2.78609 0.049977 0.534686 -2.78593 0.0158528 0.536782 -2.78559 -0.122874 0.52277 -2.78597 -0.0387718 0.535615 -4.73508 16.9084 6.83924 -4.48525 25.9874 9.7906 -0.0 0.0 -0.0 8.29273 17.4101 15.0488 2.06008 -31.5313 41.0834 1.76499 -41.1602 0.662761 -2.08848 -0.0782521 0.255196 -2.30895 5.05564 -13.1631 -0.0 0.0 -0.0 11.9103 18.2452 -23.8419 -26.5881 27.3689 -53.7719 0.45898 12.8095 -0.0515216 -39.0296 2.84855 -3.99009 -6.02578 -16.516 32.0719 0.0 0.0 0.0 7.23569 -22.0599 7.36967 -19.7732 0.298269 3.00466 18.5049 28.9966 -2.7379 37.2033 -0.0 -0.0 -0.0 0.0 -0.0 48.6974 42.9009 -28.1194 -47.3891 1.00246 -6.99992 24.7147 -11.17 3.30767 37.9292 -0.0 -0.0 0.0 0.0 0.0 
